<?xml version="1.0" ?><!DOCTYPE svg  PUBLIC '-//W3C//DTD SVG 1.1//EN'  'http://www.w3.org/Graphics/SVG/1.1/DTD/svg11.dtd'><svg enable-background="new 0 0 256 256" height="256px" id="Layer_1" version="1.1" viewBox="0 0 256 256" width="256px" xml:space="preserve" xmlns="http://www.w3.org/2000/svg" xmlns:xlink="http://www.w3.org/1999/xlink"><g><circle cx="128.063" cy="127.926" r="123.39"/><linearGradient gradientUnits="userSpaceOnUse" id="SVGID_1_" x1="68.5605" x2="187.5645" y1="230.9863" y2="24.8655"><stop offset="0" style="stop-color:#A70000"/><stop offset="1" style="stop-color:#FF7781"/></linearGradient><path d="M128.063,246.953c-65.632,0-119.027-53.396-119.027-119.027   c0-65.632,53.395-119.027,119.027-119.027c65.631,0,119.027,53.395,119.027,119.027   C247.09,193.558,193.694,246.953,128.063,246.953z M128.063,14.527c-62.528,0-113.399,50.871-113.399,113.399   c0,62.528,50.871,113.399,113.399,113.399c62.528,0,113.399-50.871,113.399-113.399C241.462,65.398,190.591,14.527,128.063,14.527z   " fill="url(#SVGID_1_)"/><linearGradient gradientUnits="userSpaceOnUse" id="SVGID_2_" x1="92.1953" x2="163.9302" y1="190.0498" y2="65.8014"><stop offset="0" style="stop-color:#A70000"/><stop offset="1" style="stop-color:#FF7781"/></linearGradient><path d="M178.793,74.76H77.331c-1.344,0-2.434,1.089-2.434,2.435v25.213v76.25   c0,1.344,1.09,2.435,2.434,2.435h101.462c1.345,0,2.436-1.091,2.436-2.435v-76.25V77.195   C181.229,75.85,180.138,74.76,178.793,74.76z M176.359,79.629v20.345H79.766V79.629H176.359z M176.359,176.223H79.766v-71.38   h96.594V176.223z" fill="url(#SVGID_2_)"/><g><linearGradient gradientUnits="userSpaceOnUse" id="SVGID_3_" x1="97.0146" x2="118.3118" y1="158.6699" y2="121.7822"><stop offset="0" style="stop-color:#A70000"/><stop offset="1" style="stop-color:#FF7781"/></linearGradient><path d="M94.946,154.854l1.706-1.462c0.731-0.488,1.219-0.366,1.707,0.304    c0.548,0.733,3.962,4.327,9.385,4.327c4.752,0,9.019-2.802,9.019-7.922c0-4.692-3.353-8.105-11.091-8.105h-3.534    c-0.671,0-1.219-0.366-1.219-1.401v-1.522c0-0.975,0.304-1.341,1.339-1.341h3.474c6.704,0,9.933-3.472,9.933-7.617    c0-4.935-3.717-7.921-8.227-7.921c-4.266,0-6.824,2.497-8.225,4.082c-0.367,0.427-0.977,0.731-1.585,0.123l-1.522-1.158    c-0.489-0.427-0.427-1.22,0-1.646c0,0,4.509-5.545,11.333-5.545c7.618,0,12.98,4.388,12.98,11.457    c0,4.813-3.656,8.592-6.521,9.933v0.182c2.987,1.218,7.557,4.389,7.557,9.994c0,7.129-5.241,12.309-13.955,12.309    c-7.677,0-11.212-4.021-12.612-5.544C94.52,155.891,94.458,155.222,94.946,154.854z" fill="url(#SVGID_3_)"/><linearGradient gradientUnits="userSpaceOnUse" id="SVGID_4_" x1="134.6992" x2="155.6567" y1="158.1338" y2="121.8343"><stop offset="0" style="stop-color:#A70000"/><stop offset="1" style="stop-color:#FF7781"/></linearGradient><path d="M129.921,139.986c0-13.771,5.545-21.938,15.234-21.938c9.751,0,15.295,8.167,15.295,21.938    c0,13.71-5.544,21.937-15.295,21.937C135.466,161.923,129.921,153.696,129.921,139.986z M155.698,139.986    c0-11.395-3.597-17.673-10.543-17.673c-6.887,0-10.481,6.278-10.481,17.673c0,11.456,3.595,17.672,10.481,17.672    C152.102,157.658,155.698,151.442,155.698,139.986z" fill="url(#SVGID_4_)"/></g></g></svg>